# xmcd
#
# Track frame offsets:
#	150
#	19212
#	37425
#	57775
#	76850
#	93375
#	116107
#	134540
#	157375
#	175525
#	192975
#	213462
#	231495
#	247380
#	264075
#	281387
#	299882
#	321125
#
# Disc length: 4479
#
# Revision: 6
# Processed by: cddbd v1.5.1PL0 Copyright (c) Steve Scherf et al.
# Submitted via: CDex 1.50Beta5
# Normalized: r4:DSETVAR1,TDELIM( - ),TSWAP
#
DISCID=1c117d12
DTITLE=Various Artist - Mega Hits 4
DYEAR=1900
DGENRE=Pop
TTITLE0=Whitney Houston - Step BY Step
TTITLE1=Lisa Stansfield - THE Real Thing
TTITLE2=Toni Braxton - Un-Break MY Heart
TTITLE3=Daryl Hall - Can´t Stop Dreaming
TTITLE4=Michele Gayle - DO YOU Know
TTITLE5=Candy Dulfer - FOR THE Love OF YOU
TTITLE6=Jennifer Brown - I´m IN Love
TTITLE7=Deni Hines - Dream Your Dream
TTITLE8=Wild Orchid - Talk TO ME
TTITLE9=Real McCoy - ONE More Time
TTITLE10=No Mercy - Where DO YOU GO
TTITLE11=Qkumba Zoo - THE Child (Inside)
TTITLE12=Scatman John - Everybody JAM!
TTITLE13=David Bowie - Little Wonder
TTITLE14=Comfort - Fledgling Operator
TTITLE15=Mark Owen - Clementine
TTITLE16=Kenny G - THE Moment
TTITLE17=Az Yet Featuring Peter Cetera - Hard TO SAY I´m Sorry
EXTD=
EXTT0=
EXTT1=
EXTT2=
EXTT3=
EXTT4=
EXTT5=
EXTT6=
EXTT7=
EXTT8=
EXTT9=
EXTT10=
EXTT11=
EXTT12=
EXTT13=
EXTT14=
EXTT15=
EXTT16=
EXTT17=
PLAYORDER=
